<?xml version="1.0" encoding="UTF-8" standalone="no"?>
<!-- Created with Inkscape (http://www.inkscape.org/) -->
<svg xmlns:dc="http://purl.org/dc/elements/1.1/" xmlns:cc="http://web.resource.org/cc/" xmlns:rdf="http://www.w3.org/1999/02/22-rdf-syntax-ns#" xmlns:svg="http://www.w3.org/2000/svg" xmlns="http://www.w3.org/2000/svg" xmlns:sodipodi="http://inkscape.sourceforge.net/DTD/sodipodi-0.dtd" xmlns:inkscape="http://www.inkscape.org/namespaces/inkscape" id="svg1393" sodipodi:version="0.32" inkscape:version="0.43" width="210mm" height="297mm" sodipodi:docbase="C:\foo\wikipedia\transfer" sodipodi:docname="Fist.svg">
  <metadata id="metadata1398">
    <rdf:RDF>
      <cc:Work rdf:about="">
        <dc:format>image/svg+xml</dc:format>
        <dc:type rdf:resource="http://purl.org/dc/dcmitype/StillImage"/>
        <cc:license rdf:resource="http://web.resource.org/cc/PublicDomain"/>
      </cc:Work>
      <cc:License rdf:about="http://web.resource.org/cc/PublicDomain">
        <cc:permits rdf:resource="http://web.resource.org/cc/Reproduction"/>
        <cc:permits rdf:resource="http://web.resource.org/cc/Distribution"/>
        <cc:permits rdf:resource="http://web.resource.org/cc/DerivativeWorks"/>
      </cc:License>
    </rdf:RDF>
  </metadata>
  <defs id="defs1396"/>
  <sodipodi:namedview inkscape:window-height="540" inkscape:window-width="812" inkscape:pageshadow="2" inkscape:pageopacity="0.0" borderopacity="1.0" bordercolor="#666666" pagecolor="#ffffff" id="base" inkscape:zoom="0.17912084" inkscape:cx="973.01843" inkscape:cy="337.79242" inkscape:window-x="0" inkscape:window-y="0" inkscape:current-layer="svg1393"/>
  <path style="fill:#000000" d="M 152.53406,1013.7929 C 134.09303,971.62236 158.26031,925.07659 149.03722,880.91277 C 151.94837,809.41151 157.46006,733.48962 121.37693,668.47297 C 96.708494,621.68897 54.085014,579.58055 57.416792,522.85399 C 60.700244,459.99965 37.740683,398.36957 44.810771,335.7396 C 62.476393,294.50629 110.30359,276.70528 128.36527,234.80728 C 161.87548,209.76236 148.16561,154.33302 198.68923,146.56886 C 243.68522,136.2667 283.28351,112.73991 319.39681,84.682071 C 359.83153,55.586237 402.75433,25.271182 452.60662,16.532272 C 515.94652,8.9828228 516.66104,82.057238 550.79727,113.0235 C 601.61675,111.14003 665.6509,130.87369 669.52069,191.92447 C 678.9456,255.00865 647.16693,315.40938 654.1589,378.59932 C 657.90681,424.37214 625.49942,460.41677 618.00511,502.39977 C 612.24403,559.37795 624.19,628.87716 575.69875,670.8284 C 552.42621,711.45603 560.45656,762.18499 539.33737,804.57374 C 520.69052,849.35877 536.44432,897.10901 528.22489,942.97597 C 508.00219,971.41187 501.67608,899.54615 495.81814,885.44907 C 493.62854,835.86521 421.20215,822.48505 420.85329,879.83416 C 421.18356,899.98176 406.77262,960.56585 390.64545,915.32594 C 397.42005,877.28821 389.13275,840.93079 355.05277,818.80976 C 348.95249,788.86379 408.07549,800.2403 409.14159,764.4467 C 410.53871,739.20654 460.9208,703.4649 450.33,748.66127 C 437.59707,799.0823 503.44859,820.58851 519.11653,769.0156 C 547.32616,725.78889 489.4548,670.88946 547.23037,645.17741 C 592.08273,618.83591 586.08752,564.74257 590.55911,520.41735 C 588.87437,475.39923 627.90952,441.21295 624.0954,396.32226 C 617.50485,374.59073 638.19224,325.45588 593.61198,346.03028 C 576.15434,360.30342 497.60405,334.29245 541.98184,372.01711 C 578.20768,378.6264 566.10959,405.19549 560.86561,427.96241 C 591.35609,466.93498 518.16207,454.17677 526.59274,497.74944 C 518.1174,535.11475 474.41987,530.63379 462.0901,568.4646 C 437.52356,586.78283 445.69907,626.42489 442.75939,643.09366 C 408.0673,628.26481 408.57747,574.8885 371.14507,558.28225 C 331.13302,527.79248 274.55407,517.82473 227.2009,533.60399 C 187.84343,529.53614 237.63173,493.78228 211.47325,473.03137 C 210.73614,450.20734 236.71924,429.12996 202.58211,412.97197 C 174.6666,400.6245 185.345,375.85059 212.91362,388.702 C 240.49446,390.31694 272.62093,327.23225 270.40268,382.6055 C 278.41287,407.32078 297.03541,433.63546 256.50139,432.81104 C 209.17395,458.00856 266.89723,515.57049 306.17835,492.18046 C 345.07525,484.87671 375.49444,451.82846 390.51288,416.65438 C 390.55624,374.33274 373.74382,330.94583 364.25415,289.17111 C 346.37552,234.19283 289.01556,232.63292 245.63353,255.15254 C 193.32555,266.95163 136.80612,277.93736 94.795494,313.33415 C 60.649097,344.69691 84.663167,392.08099 81.973725,431.47001 C 87.006391,486.75884 74.984595,546.99446 106.50339,596.43622 C 131.24368,643.86971 172.51547,685.41802 172.99767,742.14968 C 183.37313,789.58284 168.97604,836.97847 174.67475,883.8919 C 185.65385,923.9937 192.08818,979.7207 163.13641,1014.683 C 159.75385,1016.184 155.60781,1015.8978 152.53406,1013.7929 z M 429.98841,390.10443 C 465.0161,347.55156 433.37923,293.73508 423.13875,248.36219 C 424.74718,198.13687 381.72748,157.91155 333.41197,185.86845 C 288.22052,199.84198 246.85318,228.7281 197.59111,225.04853 C 172.87953,218.65871 137.06783,260.31438 181.30803,248.94874 C 234.32817,241.68566 285.09753,204.81319 339.73935,219.64606 C 384.72972,238.67091 381.10026,297.91734 399.48149,337.03131 C 408.44601,349.73696 405.30186,402.87575 429.98841,390.10443 z M 492.46712,339.95036 C 502.60889,298.19419 479.63503,255.52619 480.58691,213.50752 C 465.03571,176.66788 458.92906,109.65156 404.69411,117.92198 C 342.42463,129.56905 285.61946,159.31566 225.65425,178.67046 C 190.69394,173.92342 194.50483,220.8192 227.39267,199.29295 C 275.82412,183.74142 322.61355,161.89209 372.44848,151.48183 C 429.10717,144.2772 439.54393,214.17624 451.46182,254.62151 C 462.69593,278.09819 458.28669,343.24855 492.46712,339.95036 z M 584.22946,301.64304 C 634.34565,293.26043 652.60526,238.54161 645.1049,194.21076 C 644.30137,151.72206 565.50156,117.05726 548.53501,160.20084 C 558.37779,194.37216 614.61342,163.73338 620.24613,209.00288 C 641.36624,267.52548 570.74942,249.65813 539.86974,238.24998 C 497.06303,234.04058 511.374,311.43032 551.27503,303.55335 C 562.25255,304.64866 573.48013,304.23533 584.22946,301.64304 z M 595.0846,231.088 C 625.41266,185.82324 511.36558,184.66225 544.18086,219.67302 C 561.3634,222.51948 577.59759,229.88574 595.0846,231.088 z M 508.38542,186.28317 C 541.69082,145.77422 505.59545,81.129273 474.51031,51.161262 C 431.4122,43.170095 383.48086,76.1261 354.23818,101.26357 C 387.09457,100.26756 426.56605,74.564355 456.19061,104.49068 C 488.35666,121.18452 472.85964,174.58699 508.38542,186.28317 z " id="path1441"/>
</svg>