<?xml version="1.0" encoding="UTF-8" standalone="no"?>
<!-- Created with Inkscape (http://www.inkscape.org/) -->

<svg
   xmlns:dc="http://purl.org/dc/elements/1.1/"
   xmlns:cc="http://creativecommons.org/ns#"
   xmlns:rdf="http://www.w3.org/1999/02/22-rdf-syntax-ns#"
   xmlns:svg="http://www.w3.org/2000/svg"
   xmlns="http://www.w3.org/2000/svg"
   xmlns:xlink="http://www.w3.org/1999/xlink"
   xmlns:sodipodi="http://sodipodi.sourceforge.net/DTD/sodipodi-0.dtd"
   xmlns:inkscape="http://www.inkscape.org/namespaces/inkscape"
   width="210mm"
   height="297mm"
   id="svg2982"
   version="1.1"
   inkscape:version="0.48.2 r9819"
   sodipodi:docname="Neues Dokument 1">
  <defs
     id="defs2984">
    <filter
       color-interpolation-filters="sRGB"
       inkscape:collect="always"
       id="filter3952"
       x="-0.065089613"
       width="1.1301792"
       y="-0.36049631"
       height="1.7209926">
      <feGaussianBlur
         inkscape:collect="always"
         stdDeviation="19.648783"
         id="feGaussianBlur3954" />
    </filter>
    <filter
       color-interpolation-filters="sRGB"
       inkscape:collect="always"
       id="filter3900"
       x="-0.033240348"
       width="1.0664808"
       y="-0.11603175"
       height="1.2320635">
      <feGaussianBlur
         inkscape:collect="always"
         stdDeviation="3.13384"
         id="feGaussianBlur3902" />
    </filter>
    <filter
       color-interpolation-filters="sRGB"
       inkscape:collect="always"
       id="filter3812">
      <feGaussianBlur
         inkscape:collect="always"
         stdDeviation="3.0531517"
         id="feGaussianBlur3814" />
    </filter>
    <linearGradient
       inkscape:collect="always"
       xlink:href="#linearGradient2999"
       id="linearGradient3828"
       gradientUnits="userSpaceOnUse"
       gradientTransform="matrix(0.793697,0,0,2.31996,873.367,-678.079)"
       x1="391.7291"
       y1="576.58545"
       x2="385.74753"
       y2="385.29355" />
    <linearGradient
       inkscape:collect="always"
       id="linearGradient2999">
      <stop
         style="stop-color:#d40000;stop-opacity:1;"
         offset="0"
         id="stop3001" />
      <stop
         style="stop-color:#ff0000;stop-opacity:1"
         offset="1"
         id="stop3003" />
    </linearGradient>
    <linearGradient
       inkscape:collect="always"
       xlink:href="#linearGradient2999"
       id="linearGradient3834"
       gradientUnits="userSpaceOnUse"
       gradientTransform="matrix(0.661423,0,0,1.93332,927.214,-493.506)"
       x1="391.7291"
       y1="576.58545"
       x2="385.74753"
       y2="385.29355" />
    <filter
       color-interpolation-filters="sRGB"
       inkscape:collect="always"
       id="filter3894">
      <feGaussianBlur
         inkscape:collect="always"
         stdDeviation="1.4144678"
         id="feGaussianBlur3896" />
    </filter>
  </defs>
  <sodipodi:namedview
     id="base"
     pagecolor="#ffffff"
     bordercolor="#666666"
     borderopacity="1.0"
     inkscape:pageopacity="0.0"
     inkscape:pageshadow="2"
     inkscape:zoom="0.35"
     inkscape:cx="350"
     inkscape:cy="520"
     inkscape:document-units="px"
     inkscape:current-layer="layer1"
     showgrid="false"
     inkscape:window-width="787"
     inkscape:window-height="610"
     inkscape:window-x="448"
     inkscape:window-y="56"
     inkscape:window-maximized="0" />
  <metadata
     id="metadata2987">
    <rdf:RDF>
      <cc:Work
         rdf:about="">
        <dc:format>image/svg+xml</dc:format>
        <dc:type
           rdf:resource="http://purl.org/dc/dcmitype/StillImage" />
        <dc:title></dc:title>
      </cc:Work>
    </rdf:RDF>
  </metadata>
  <g
     inkscape:label="Ebene 1"
     inkscape:groupmode="layer"
     id="layer1">
    <path
       inkscape:connector-curvature="0"
       style="fill:#000000"
       d="m 749.45278,1090.3476 c -18.44103,-42.1705 5.72625,-88.7163 -3.49684,-132.8801 2.91115,-71.50126 8.42284,-147.42315 -27.66029,-212.4398 -24.66843,-46.784 -67.29191,-88.89242 -63.96014,-145.61898 3.28346,-62.85434 -19.6761,-124.48442 -12.60602,-187.11439 17.66563,-41.23331 65.49282,-59.03432 83.5545,-100.93232 33.51021,-25.04492 19.80034,-80.47426 70.32396,-88.23842 44.99599,-10.30216 84.59428,-33.82895 120.70758,-61.88679 40.43472,-29.09583 83.35752,-59.41089 133.20977,-68.149799 63.3399,-7.549449 64.0545,65.524969 98.1907,96.491229 50.8195,-1.88347 114.8536,17.85019 118.7234,78.90097 9.4249,63.08418 -22.3537,123.48491 -15.3618,186.67485 3.7479,45.77282 -28.6595,81.81745 -36.1538,123.80045 -5.761,56.97818 6.1849,126.47739 -42.3063,168.42863 -23.2726,40.62763 -15.2422,91.35659 -36.3614,133.74534 -18.6469,44.78503 -2.8931,92.53527 -11.1125,138.40223 -20.2227,28.4359 -26.5488,-43.42982 -32.4067,-57.5269 -2.1896,-49.58386 -74.616,-62.96402 -74.9649,-5.61491 0.3303,20.1476 -14.0807,80.73171 -30.20783,35.49178 6.7746,-38.03773 -1.5127,-74.39515 -35.59268,-96.51618 -6.10028,-29.94597 53.02271,-18.56946 54.08881,-54.36306 1.3971,-25.24016 51.7792,-60.9818 41.1884,-15.78543 -12.7329,50.42103 53.1186,71.92724 68.7866,20.35433 28.2096,-43.22671 -29.6618,-98.12614 28.1138,-123.83819 44.8524,-26.3415 38.8571,-80.43484 43.3287,-124.76006 -1.6847,-45.01812 37.3504,-79.2044 33.5363,-124.09509 -6.5905,-21.73153 14.0969,-70.86638 -30.4834,-50.29198 -17.4576,14.27314 -96.0079,-11.73783 -51.6301,25.98683 36.2258,6.60929 24.1277,33.17838 18.8837,55.9453 30.4905,38.97257 -42.7035,26.21436 -34.2728,69.78703 -8.4754,37.36531 -52.1729,32.88435 -64.5027,70.71516 -24.5665,18.31823 -16.391,57.96029 -19.3307,74.62906 -34.6921,-14.82885 -34.1819,-68.20516 -71.61431,-84.81141 -40.01205,-30.48977 -96.591,-40.45752 -143.94417,-24.67826 -39.35747,-4.06785 10.43083,-39.82171 -15.72765,-60.57262 -0.73711,-22.82403 25.24599,-43.90141 -8.89114,-60.0594 -27.91551,-12.34747 -17.23711,-37.12138 10.33151,-24.26997 27.58084,1.61494 59.70731,-61.46975 57.48906,-6.0965 8.01019,24.71528 26.63273,51.02996 -13.90129,50.20554 -47.32744,25.19752 10.39584,82.75945 49.67696,59.36942 38.8969,-7.30375 69.31609,-40.352 84.33453,-75.52608 0.0434,-42.32164 -16.76906,-85.70855 -26.25873,-127.48327 -17.87863,-54.97828 -75.23859,-56.53819 -118.62062,-34.01857 -52.30798,11.79909 -108.82741,22.78482 -150.83803,58.18161 -34.1464,31.36276 -10.13233,78.74684 -12.82177,118.13586 5.03266,55.28883 -6.98913,115.52445 24.52966,164.96621 24.74029,47.43349 66.01208,88.9818 66.49428,145.71346 10.37546,47.43316 -4.02163,94.82879 1.67708,141.74222 10.9791,40.10177 17.41343,95.82877 -11.53834,130.79107 -3.38256,1.501 -7.5286,1.2148 -10.60235,-0.8901 z M 1026.9071,466.65916 c 35.0277,-42.55287 3.3909,-96.36935 -6.8496,-141.74224 1.6084,-50.22532 -41.4113,-90.45064 -89.72681,-62.49374 -45.19145,13.97353 -86.55879,42.85965 -135.82086,39.18008 -24.71158,-6.38982 -60.52328,35.26585 -16.28308,23.90021 53.02014,-7.26308 103.7895,-44.13555 158.43132,-29.30268 44.99037,19.02485 41.36091,78.27128 59.74214,117.38525 8.96449,12.70565 5.82039,65.84444 30.50689,53.07312 z m 62.4787,-50.15407 c 10.1418,-41.75617 -12.832,-84.42417 -11.8802,-126.44284 -15.5512,-36.83964 -21.6578,-103.85596 -75.8928,-95.58554 -62.26945,11.64707 -119.07462,41.39368 -179.03983,60.74848 -34.96031,-4.74704 -31.14942,42.14874 1.73842,20.62249 48.43145,-15.55153 95.22088,-37.40086 145.05581,-47.81112 56.6587,-7.20463 67.0955,62.69441 79.0133,103.13968 11.2342,23.47668 6.8249,88.62704 41.0053,85.32885 z m 91.7624,-38.30732 c 50.1162,-8.38261 68.3758,-63.10143 60.8754,-107.43228 -0.8035,-42.4887 -79.6033,-77.1535 -96.5699,-34.00992 9.8428,34.17132 66.0784,3.53254 71.7112,48.80204 21.1201,58.5226 -49.4968,40.65525 -80.3764,29.2471 -42.8067,-4.2094 -28.4958,73.18034 11.4053,65.30337 10.9775,1.09531 22.2051,0.68198 32.9544,-1.91031 z m 10.8551,-70.55504 c 30.3281,-45.26476 -83.719,-46.42575 -50.9037,-11.41498 17.1825,2.84646 33.4167,10.21272 50.9037,11.41498 z m -86.6992,-44.80483 c 33.3054,-40.50895 -2.7899,-105.1539 -33.8751,-135.12191 -43.0981,-7.99117 -91.02942,24.96484 -120.2721,50.10231 32.85639,-0.99601 72.3279,-26.69922 101.9524,3.22711 32.1661,16.69384 16.6691,70.09631 52.1948,81.79249 z"
       id="path1441" />
    <g
       transform="matrix(0.263278,0,0,0.294268,-428.38288,558.41178)"
       id="g3956">
      <path
         transform="matrix(0.773597,0,0,1,237.682,-46.958)"
         d="m 1583.1551,708.56262 c 0,36.12261 -162.1837,65.40577 -362.2474,65.40577 -200.0637,0 -362.24733,-29.28316 -362.24733,-65.40577 0,-36.12261 162.18363,-65.40577 362.24733,-65.40577 200.0637,0 362.2474,29.28316 362.2474,65.40577 z"
         sodipodi:ry="65.405769"
         sodipodi:rx="362.24734"
         sodipodi:cy="708.56262"
         sodipodi:cx="1220.9077"
         id="path3942"
         style="opacity:0.4;fill:#1a1a1a;stroke:#ff8080;stroke-width:0.85757709;stroke-linecap:square;stroke-linejoin:round;stroke-miterlimit:4;stroke-opacity:1;stroke-dasharray:1.71515417, 1.71515417;stroke-dashoffset:0;filter:url(#filter3952)"
         sodipodi:type="arc" />
      <g
         id="g3923">
        <path
           transform="matrix(-1,0,0,-2.05845,2368.93,261.393)"
           style="fill:none;stroke:#ff0000;stroke-width:10.45493507;stroke-linecap:square;stroke-linejoin:round;stroke-miterlimit:4;stroke-opacity:1;stroke-dasharray:none;stroke-dashoffset:0"
           d="m 1292.1428,53.522896 c 0,61.688234 -144.7044,64.640424 -204.1726,64.819384 -42.0268,0.12647 -11.1845,-12.48682 -11.1845,-64.819384 l 0,-5e-6"
           id="path3816"
           inkscape:connector-curvature="0"
           sodipodi:nodetypes="cssc" />
        <path
           sodipodi:nodetypes="cssc"
           inkscape:connector-curvature="0"
           id="path3898"
           d="m 1292.1428,53.522896 c 0,61.688234 -144.7044,64.640424 -204.1726,64.819384 -42.0268,0.12647 -11.1845,-12.48682 -11.1845,-64.819384 l 0,-5e-6"
           style="fill:none;stroke:#d40000;stroke-width:3.48497844;stroke-linecap:square;stroke-linejoin:round;stroke-miterlimit:4;stroke-opacity:1;stroke-dasharray:none;stroke-dashoffset:0;filter:url(#filter3900)"
           transform="matrix(-1,0,0,-2.05845,2368.93,261.393)" />
        <path
           sodipodi:nodetypes="ccccc"
           inkscape:connector-curvature="0"
           id="path3018"
           d="m 995.86794,158.63594 396.86976,0 48.2053,512.99782 -495.81772,0 z"
           style="fill:#d40000;fill-opacity:1;stroke:#d40000;stroke-width:6.73533249;stroke-linecap:round;stroke-linejoin:round;stroke-miterlimit:4;stroke-opacity:1;stroke-dashoffset:0" />
        <path
           style="fill:none;stroke:#ff8080;stroke-width:3;stroke-linecap:round;stroke-linejoin:round;stroke-miterlimit:4;stroke-opacity:1;stroke-dashoffset:0;filter:url(#filter3812)"
           d="m 953.27438,177.23927 448.80162,0 54.5133,660.5632 -560.69747,0 z"
           id="path3034"
           inkscape:connector-curvature="0"
           sodipodi:nodetypes="ccccc"
           transform="matrix(0.861281,0,0,0.748334,178.17,32.7072)" />
        <path
           style="fill:url(#linearGradient3828);fill-opacity:1;stroke:#d40000;stroke-width:6.53270054;stroke-linecap:round;stroke-linejoin:round;stroke-miterlimit:4;stroke-opacity:1;stroke-dashoffset:0"
           d="m 995.07626,172.31266 384.92974,0 46.7553,497.56428 -480.90111,0 z"
           id="rect3013"
           inkscape:connector-curvature="0"
           sodipodi:nodetypes="ccccc" />
        <path
           transform="matrix(-1,0,0,-2.20721,2376.96,307.463)"
           style="fill:none;stroke:#d40000;stroke-width:10.09646416;stroke-linecap:square;stroke-linejoin:round;stroke-miterlimit:4;stroke-opacity:1;stroke-dasharray:none;stroke-dashoffset:0"
           d="m 1292.1428,53.522896 c 0,61.688234 105.4663,63.769004 45.997,63.769004 -59.4692,0 -261.3541,-2.08077 -261.3541,-63.769004 l 0,-5e-6"
           id="path3818"
           inkscape:connector-curvature="0"
           sodipodi:nodetypes="cssc" />
        <path
           sodipodi:nodetypes="ccccc"
           inkscape:connector-curvature="0"
           id="path3832"
           d="m 1028.639,215.16221 320.7789,0 38.9633,414.64221 -400.75611,0 z"
           style="fill:url(#linearGradient3834);fill-opacity:1;stroke:#d40000;stroke-width:5.44398689;stroke-linecap:round;stroke-linejoin:round;stroke-miterlimit:4;stroke-opacity:1;stroke-dashoffset:0" />
        <path
           style="fill:none;stroke:#d40000;stroke-width:1.98986018;stroke-linecap:round;stroke-linejoin:round;stroke-miterlimit:4;stroke-opacity:1;stroke-dasharray:15.91888129, 7.95944064;stroke-dashoffset:0"
           d="m 1002.5964,184.82521 369.6191,0 44.8958,475.74376 -461.77351,0 z"
           id="path3842-6"
           inkscape:connector-curvature="0"
           sodipodi:nodetypes="ccccc" />
        <path
           sodipodi:nodetypes="cssc"
           inkscape:connector-curvature="0"
           id="path3884"
           d="m 1292.1428,53.522896 c 0,61.688234 105.4663,63.769004 45.997,63.769004 -59.4692,0 -261.3541,-2.08077 -261.3541,-63.769004 l 0,-5e-6"
           style="opacity:0.1744681;fill:none;stroke:#2b0000;stroke-width:3.36548805;stroke-linecap:square;stroke-linejoin:round;stroke-miterlimit:4;stroke-opacity:1;stroke-dasharray:none;stroke-dashoffset:0;filter:url(#filter3894)"
           transform="matrix(-1,0,0,-2.10988,2376.96,296.047)" />
        <g
           id="g3910">
          <path
             inkscape:connector-curvature="0"
             id="path3904"
             d="m 1074.4896,179.56308 c 17.8788,0 18.7509,0 18.7509,0 l 0,1.18587"
             style="fill:none;stroke:#aa0000;stroke-width:0.85757709;stroke-linecap:butt;stroke-linejoin:miter;stroke-miterlimit:4;stroke-opacity:1;stroke-dasharray:1.71515417, 1.71515417;stroke-dashoffset:0" />
          <path
             style="fill:none;stroke:#aa0000;stroke-width:0.85757709;stroke-linecap:butt;stroke-linejoin:miter;stroke-miterlimit:4;stroke-opacity:1;stroke-dasharray:1.71515417, 1.71515417;stroke-dashoffset:0"
             d="m 1074.4896,187.86416 c 17.8788,0 18.7509,0 18.7509,0 l 0,1.18587"
             id="path3906"
             inkscape:connector-curvature="0" />
          <path
             inkscape:connector-curvature="0"
             id="path3908"
             d="m 1074.4896,191.86416 c 17.8788,0 18.7509,0 18.7509,0 l 0,1.18587"
             style="fill:none;stroke:#aa0000;stroke-width:0.85757709;stroke-linecap:butt;stroke-linejoin:miter;stroke-miterlimit:4;stroke-opacity:1;stroke-dasharray:1.71515417, 1.71515417;stroke-dashoffset:0" />
        </g>
        <g
           id="g3915"
           transform="translate(215.828,0.592934)">
          <path
             style="fill:none;stroke:#aa0000;stroke-width:0.85757709;stroke-linecap:butt;stroke-linejoin:miter;stroke-miterlimit:4;stroke-opacity:1;stroke-dasharray:1.71515417, 1.71515417;stroke-dashoffset:0"
             d="m 1074.4896,179.56308 c 17.8788,0 18.7509,0 18.7509,0 l 0,1.18587"
             id="path3917"
             inkscape:connector-curvature="0" />
          <path
             inkscape:connector-curvature="0"
             id="path3919"
             d="m 1074.4896,187.86416 c 17.8788,0 18.7509,0 18.7509,0 l 0,1.18587"
             style="fill:none;stroke:#aa0000;stroke-width:0.85757709;stroke-linecap:butt;stroke-linejoin:miter;stroke-miterlimit:4;stroke-opacity:1;stroke-dasharray:1.71515417, 1.71515417;stroke-dashoffset:0" />
          <path
             style="fill:none;stroke:#aa0000;stroke-width:0.85757709;stroke-linecap:butt;stroke-linejoin:miter;stroke-miterlimit:4;stroke-opacity:1;stroke-dasharray:1.71515417, 1.71515417;stroke-dashoffset:0"
             d="m 1074.4896,191.86416 c 17.8788,0 18.7509,0 18.7509,0 l 0,1.18587"
             id="path3921"
             inkscape:connector-curvature="0" />
        </g>
      </g>
    </g>
  </g>
</svg>
