<?xml version="1.0" encoding="UTF-8" standalone="no"?>
<!-- Created with Inkscape (http://www.inkscape.org/) -->

<svg
   xmlns:dc="http://purl.org/dc/elements/1.1/"
   xmlns:cc="http://creativecommons.org/ns#"
   xmlns:rdf="http://www.w3.org/1999/02/22-rdf-syntax-ns#"
   xmlns:svg="http://www.w3.org/2000/svg"
   xmlns="http://www.w3.org/2000/svg"
   xmlns:xlink="http://www.w3.org/1999/xlink"
   xmlns:sodipodi="http://sodipodi.sourceforge.net/DTD/sodipodi-0.dtd"
   xmlns:inkscape="http://www.inkscape.org/namespaces/inkscape"
   width="920.98859"
   height="1404.6809"
   id="svg2982"
   version="1.1"
   inkscape:version="0.48.2 r9819"
   sodipodi:docname="logo.svg"
   inkscape:export-filename="/home/lutz/workspace/yet-Another-Opening-Hours-App/logo/logo.png"
   inkscape:export-xdpi="300"
   inkscape:export-ydpi="300">
  <defs
     id="defs2984">
    <filter
       color-interpolation-filters="sRGB"
       inkscape:collect="always"
       id="filter3900"
       x="-0.033240348"
       width="1.0664808"
       y="-0.11603175"
       height="1.2320635">
      <feGaussianBlur
         inkscape:collect="always"
         stdDeviation="3.13384"
         id="feGaussianBlur3902" />
    </filter>
    <filter
       color-interpolation-filters="sRGB"
       inkscape:collect="always"
       id="filter3812">
      <feGaussianBlur
         inkscape:collect="always"
         stdDeviation="3.0531517"
         id="feGaussianBlur3814" />
    </filter>
    <linearGradient
       inkscape:collect="always"
       id="linearGradient2999">
      <stop
         style="stop-color:#d40000;stop-opacity:1;"
         offset="0"
         id="stop3001" />
      <stop
         style="stop-color:#ff0000;stop-opacity:1"
         offset="1"
         id="stop3003" />
    </linearGradient>
    <filter
       color-interpolation-filters="sRGB"
       inkscape:collect="always"
       id="filter3894">
      <feGaussianBlur
         inkscape:collect="always"
         stdDeviation="1.4144678"
         id="feGaussianBlur3896" />
    </filter>
    <linearGradient
       inkscape:collect="always"
       xlink:href="#linearGradient2999"
       id="linearGradient3138"
       gradientUnits="userSpaceOnUse"
       gradientTransform="matrix(1.2110618,0,0,4.0242713,138.88664,-923.36917)"
       x1="391.7291"
       y1="576.58545"
       x2="385.74753"
       y2="385.29355" />
    <linearGradient
       inkscape:collect="always"
       xlink:href="#linearGradient2999"
       id="linearGradient3142"
       gradientUnits="userSpaceOnUse"
       gradientTransform="matrix(1.4532548,0,0,4.8290756,40.293086,-1307.5641)"
       x1="391.7291"
       y1="576.58545"
       x2="385.74753"
       y2="385.29355" />
  </defs>
  <sodipodi:namedview
     id="base"
     pagecolor="#ffffff"
     bordercolor="#666666"
     borderopacity="1.0"
     inkscape:pageopacity="0.0"
     inkscape:pageshadow="2"
     inkscape:zoom="0.35"
     inkscape:cx="537.28264"
     inkscape:cy="687.48443"
     inkscape:document-units="px"
     inkscape:current-layer="layer1"
     showgrid="false"
     inkscape:window-width="1366"
     inkscape:window-height="742"
     inkscape:window-x="0"
     inkscape:window-y="26"
     inkscape:window-maximized="1"
     fit-margin-top="0"
     fit-margin-left="0"
     fit-margin-right="0"
     fit-margin-bottom="0" />
  <metadata
     id="metadata2987">
    <rdf:RDF>
      <cc:Work
         rdf:about="">
        <dc:format>image/svg+xml</dc:format>
        <dc:type
           rdf:resource="http://purl.org/dc/dcmitype/StillImage" />
        <dc:title></dc:title>
      </cc:Work>
    </rdf:RDF>
  </metadata>
  <g
     inkscape:label="Ebene 1"
     inkscape:groupmode="layer"
     id="layer1"
     transform="translate(92.035294,141.91172)">
    <g
       id="g3148"
       transform="translate(-257.14286,-245.71428)">
      <path
         sodipodi:nodetypes="cssc"
         inkscape:connector-curvature="0"
         id="path3816"
         d="m 412.75437,418.64741 c 0,-264.31765 264.95295,-276.967 373.83889,-277.7338 76.95083,-0.54189 20.47875,53.5027 20.47875,277.7338 l 0,3e-5"
         style="fill:none;stroke:#ff0000;stroke-width:29.28375435;stroke-linecap:square;stroke-linejoin:round;stroke-miterlimit:4;stroke-opacity:1;stroke-dasharray:none;stroke-dashoffset:0" />
      <path
         transform="matrix(-1.8309944,0,0,-4.2847337,2778.6606,647.97877)"
         style="fill:none;stroke:#d40000;stroke-width:3.48497844;stroke-linecap:square;stroke-linejoin:round;stroke-miterlimit:4;stroke-opacity:1;stroke-dasharray:none;stroke-dashoffset:0;filter:url(#filter3900)"
         d="m 1292.1428,53.522896 c 0,61.688234 -144.7044,64.640424 -204.1726,64.819384 -42.0268,0.12647 -11.1845,-12.48682 -11.1845,-64.819384 l 0,-5e-6"
         id="path3898"
         inkscape:connector-curvature="0"
         sodipodi:nodetypes="cssc" />
      <path
         style="fill:#d40000;fill-opacity:1;stroke:#d40000;stroke-width:13.14904785;stroke-linecap:round;stroke-linejoin:round;stroke-miterlimit:4;stroke-opacity:1;stroke-dashoffset:0"
         d="m 264.59162,434.08645 726.66631,0 88.26367,1067.82245 -907.83951,0 z"
         id="path3018"
         inkscape:connector-curvature="0"
         sodipodi:nodetypes="ccccc" />
      <path
         transform="matrix(1.5770007,0,0,1.5576827,-1232.6087,171.9615)"
         sodipodi:nodetypes="ccccc"
         inkscape:connector-curvature="0"
         id="path3034"
         d="m 953.27438,177.23927 448.80162,0 54.5133,660.5632 -560.69747,0 z"
         style="fill:none;stroke:#ff8080;stroke-width:3;stroke-linecap:round;stroke-linejoin:round;stroke-miterlimit:4;stroke-opacity:1;stroke-dashoffset:0;filter:url(#filter3812)" />
      <path
         sodipodi:nodetypes="ccccc"
         inkscape:connector-curvature="0"
         id="rect3013"
         d="m 263.14206,462.55501 704.8042,0 85.60874,1035.69699 -880.52729,0 z"
         style="fill:url(#linearGradient3142);fill-opacity:1;stroke:#d40000;stroke-width:12.75345993;stroke-linecap:round;stroke-linejoin:round;stroke-miterlimit:4;stroke-opacity:1;stroke-dashoffset:0" />
      <path
         sodipodi:nodetypes="cssc"
         inkscape:connector-curvature="0"
         id="path3818"
         d="m 427.45717,497.97037 c 0,-283.41935 -193.10821,-292.97921 -84.22025,-292.97921 108.88777,0 478.53789,9.55986 478.53789,292.97921 l 0,3e-5"
         style="fill:none;stroke:#d40000;stroke-width:29.28372955;stroke-linecap:square;stroke-linejoin:round;stroke-miterlimit:4;stroke-opacity:1;stroke-dasharray:none;stroke-dashoffset:0" />
      <path
         style="fill:url(#linearGradient3138);fill-opacity:1;stroke:#d40000;stroke-width:10.62801933;stroke-linecap:round;stroke-linejoin:round;stroke-miterlimit:4;stroke-opacity:1;stroke-dashoffset:0"
         d="m 324.59525,551.74781 587.34437,0 71.34158,863.09189 -733.78219,0 z"
         id="path3832"
         inkscape:connector-curvature="0"
         sodipodi:nodetypes="ccccc" />
      <path
         sodipodi:nodetypes="ccccc"
         inkscape:connector-curvature="0"
         id="path3842-6"
         d="m 276.91139,488.60031 676.77051,0 82.204,990.27679 -845.50476,0 z"
         style="fill:none;stroke:#d40000;stroke-width:3.88470292;stroke-linecap:round;stroke-linejoin:round;stroke-miterlimit:4;stroke-opacity:1;stroke-dasharray:31.07762391, 15.53881195;stroke-dashoffset:0" />
      <path
         transform="matrix(-1.8309944,0,0,-4.391787,2793.3634,720.11225)"
         style="opacity:0.1744681;fill:none;stroke:#2b0000;stroke-width:3.36548805;stroke-linecap:square;stroke-linejoin:round;stroke-miterlimit:4;stroke-opacity:1;stroke-dasharray:none;stroke-dashoffset:0;filter:url(#filter3894)"
         d="m 1292.1428,53.522896 c 0,61.688234 105.4663,63.769004 45.997,63.769004 -59.4692,0 -261.3541,-2.08077 -261.3541,-63.769004 l 0,-5e-6"
         id="path3884"
         inkscape:connector-curvature="0"
         sodipodi:nodetypes="cssc" />
      <g
         transform="matrix(1.8309944,0,0,2.081534,-1558.837,103.88035)"
         id="g3910">
        <path
           style="fill:none;stroke:#aa0000;stroke-width:0.85757709;stroke-linecap:butt;stroke-linejoin:miter;stroke-miterlimit:4;stroke-opacity:1;stroke-dasharray:1.71515417, 1.71515417;stroke-dashoffset:0"
           d="m 1074.4896,179.56308 c 17.8788,0 18.7509,0 18.7509,0 l 0,1.18587"
           id="path3904"
           inkscape:connector-curvature="0" />
        <path
           inkscape:connector-curvature="0"
           id="path3906"
           d="m 1074.4896,187.86416 c 17.8788,0 18.7509,0 18.7509,0 l 0,1.18587"
           style="fill:none;stroke:#aa0000;stroke-width:0.85757709;stroke-linecap:butt;stroke-linejoin:miter;stroke-miterlimit:4;stroke-opacity:1;stroke-dasharray:1.71515417, 1.71515417;stroke-dashoffset:0" />
        <path
           style="fill:none;stroke:#aa0000;stroke-width:0.85757709;stroke-linecap:butt;stroke-linejoin:miter;stroke-miterlimit:4;stroke-opacity:1;stroke-dasharray:1.71515417, 1.71515417;stroke-dashoffset:0"
           d="m 1074.4896,191.86416 c 17.8788,0 18.7509,0 18.7509,0 l 0,1.18587"
           id="path3908"
           inkscape:connector-curvature="0" />
      </g>
      <g
         transform="matrix(1.8309944,0,0,2.081534,-1163.6571,105.11456)"
         id="g3915">
        <path
           inkscape:connector-curvature="0"
           id="path3917"
           d="m 1074.4896,179.56308 c 17.8788,0 18.7509,0 18.7509,0 l 0,1.18587"
           style="fill:none;stroke:#aa0000;stroke-width:0.85757709;stroke-linecap:butt;stroke-linejoin:miter;stroke-miterlimit:4;stroke-opacity:1;stroke-dasharray:1.71515417, 1.71515417;stroke-dashoffset:0" />
        <path
           style="fill:none;stroke:#aa0000;stroke-width:0.85757709;stroke-linecap:butt;stroke-linejoin:miter;stroke-miterlimit:4;stroke-opacity:1;stroke-dasharray:1.71515417, 1.71515417;stroke-dashoffset:0"
           d="m 1074.4896,187.86416 c 17.8788,0 18.7509,0 18.7509,0 l 0,1.18587"
           id="path3919"
           inkscape:connector-curvature="0" />
        <path
           inkscape:connector-curvature="0"
           id="path3921"
           d="m 1074.4896,191.86416 c 17.8788,0 18.7509,0 18.7509,0 l 0,1.18587"
           style="fill:none;stroke:#aa0000;stroke-width:0.85757709;stroke-linecap:butt;stroke-linejoin:miter;stroke-miterlimit:4;stroke-opacity:1;stroke-dasharray:1.71515417, 1.71515417;stroke-dashoffset:0" />
      </g>
    </g>
    <path
       inkscape:connector-curvature="0"
       style="fill:#000000"
       d="m 172.30992,1250.3475 c -18.44108,-42.1705 5.72625,-88.7163 -3.49684,-132.88 2.91115,-71.5013 8.42284,-147.42315 -27.66034,-212.4398 -24.6684,-46.784 -67.291897,-88.89242 -63.960097,-145.61898 3.2835,-62.85434 -19.6761,-124.48442 -12.606,-187.11439 17.6656,-41.23331 65.492797,-59.03432 83.554497,-100.93232 33.5102,-25.04492 19.80033,-80.47426 70.32395,-88.23842 44.99599,-10.30216 84.59428,-33.82895 120.70758,-61.88679 40.43472,-29.09583 83.35752,-59.41089 133.20977,-68.1498 63.3399,-7.54945 64.0545,65.52497 98.1907,96.49123 50.8195,-1.88347 114.85356,17.85019 118.72336,78.90097 9.4249,63.08418 -22.35366,123.48491 -15.36176,186.67485 3.7479,45.77282 -28.6595,81.81745 -36.1538,123.80045 -5.761,56.97818 6.1849,126.47739 -42.3063,168.42863 -23.2726,40.62763 -15.2422,91.35659 -36.3614,133.74537 -18.6469,44.785 -2.8931,92.5352 -11.1125,138.4021 -20.2227,28.4359 -26.5488,-43.4298 -32.4067,-57.5268 -2.1896,-49.5839 -74.616,-62.964 -74.9649,-5.615 0.3303,20.1476 -14.0807,80.7317 -30.20783,35.4918 6.7746,-38.0377 -1.5127,-74.3951 -35.59268,-96.5161 -6.10028,-29.946 53.02271,-18.5695 54.08881,-54.3631 1.3971,-25.24013 51.7792,-60.98177 41.1884,-15.7854 -12.7329,50.421 53.1186,71.9272 68.7866,20.3543 28.2096,-43.22668 -29.6618,-98.12611 28.1138,-123.83816 44.8524,-26.3415 38.8571,-80.43484 43.3287,-124.76006 -1.6847,-45.01812 37.3504,-79.2044 33.5363,-124.09509 -6.5905,-21.73153 14.0969,-70.86638 -30.4834,-50.29198 -17.4576,14.27314 -96.0079,-11.73783 -51.6301,25.98683 36.2258,6.60929 24.1277,33.17838 18.8837,55.9453 30.4905,38.97257 -42.7035,26.21436 -34.2728,69.78703 -8.4754,37.36531 -52.1729,32.88435 -64.5027,70.71516 -24.5665,18.31823 -16.391,57.96029 -19.3307,74.62906 -34.6921,-14.82885 -34.1819,-68.20516 -71.61431,-84.81141 -40.01205,-30.48977 -96.591,-40.45752 -143.94417,-24.67826 -39.35747,-4.06785 10.43083,-39.82171 -15.72765,-60.57262 -0.73711,-22.82403 25.24599,-43.90141 -8.89114,-60.0594 -27.91551,-12.34747 -17.23711,-37.12138 10.33151,-24.26997 27.58084,1.61494 59.70731,-61.46975 57.48906,-6.0965 8.01019,24.71528 26.63273,51.02996 -13.90129,50.20554 -47.32744,25.19752 10.39584,82.75945 49.67696,59.36942 38.8969,-7.30375 69.31609,-40.352 84.33453,-75.52608 0.0434,-42.32164 -16.76906,-85.70855 -26.25873,-127.48327 -17.87863,-54.97828 -75.23859,-56.53819 -118.62062,-34.01857 -52.30798,11.79909 -108.82745,22.78482 -150.83805,58.18161 -34.146397,31.36276 -10.1323,78.74684 -12.8218,118.13586 5.0327,55.28883 -6.989097,115.52445 24.5297,164.96621 24.7403,47.43349 66.01209,88.9818 66.49429,145.71346 10.37546,47.43309 -4.02163,94.82879 1.67708,141.74219 10.9791,40.1017 17.41343,95.8287 -11.53834,130.791 -3.38256,1.501 -7.5286,1.2148 -10.60235,-0.8901 z M 449.76424,626.65916 c 35.0277,-42.55287 3.3909,-96.36935 -6.8496,-141.74224 1.6084,-50.22532 -41.4113,-90.45064 -89.72681,-62.49374 -45.19145,13.97353 -86.55879,42.85965 -135.82086,39.18008 -24.71158,-6.38982 -60.52333,35.26585 -16.28308,23.90021 53.02014,-7.26308 103.7895,-44.13555 158.43132,-29.30268 44.99037,19.02485 41.36091,78.27128 59.74214,117.38525 8.96449,12.70565 5.82039,65.84444 30.50689,53.07312 z m 62.4787,-50.15407 c 10.1418,-41.75617 -12.832,-84.42417 -11.8802,-126.44284 -15.5512,-36.83964 -21.6578,-103.85596 -75.8928,-95.58554 -62.26945,11.64707 -119.07462,41.39368 -179.03983,60.74848 -34.96031,-4.74704 -31.14942,42.14874 1.73842,20.62249 48.43145,-15.55153 95.22088,-37.40086 145.05581,-47.81112 56.6587,-7.20463 67.0955,62.69441 79.0133,103.13968 11.2342,23.47668 6.8249,88.62704 41.0053,85.32885 z m 91.7624,-38.30732 c 50.1162,-8.38261 68.3758,-63.10143 60.8754,-107.43228 -0.8035,-42.4887 -79.6033,-77.1535 -96.5699,-34.00992 9.8428,34.17132 66.0784,3.53254 71.7112,48.80204 21.1201,58.5226 -49.4968,40.65525 -80.3764,29.2471 -42.8067,-4.2094 -28.4958,73.18034 11.4053,65.30337 10.9775,1.09531 22.2051,0.68198 32.9544,-1.91031 z m 10.8551,-70.55504 c 30.3281,-45.26476 -83.719,-46.42575 -50.9037,-11.41498 17.1825,2.84646 33.4167,10.21272 50.9037,11.41498 z m -86.6992,-44.80483 c 33.3054,-40.50895 -2.7899,-105.1539 -33.8751,-135.12191 -43.0981,-7.99117 -91.02942,24.96484 -120.2721,50.10231 32.85639,-0.99601 72.3279,-26.69922 101.9524,3.22711 32.1661,16.69384 16.6691,70.09631 52.1948,81.79249 z"
       id="path1441" />
  </g>
</svg>
