<?xml version="1.0" encoding="UTF-8" standalone="no"?>
<!-- Created with Inkscape (http://www.inkscape.org/) -->
<svg xmlns:dc="http://purl.org/dc/elements/1.1/" xmlns:cc="http://creativecommons.org/ns#" xmlns:rdf="http://www.w3.org/1999/02/22-rdf-syntax-ns#" xmlns:svg="http://www.w3.org/2000/svg" xmlns="http://www.w3.org/2000/svg" xmlns:xlink="http://www.w3.org/1999/xlink" xmlns:sodipodi="http://sodipodi.sourceforge.net/DTD/sodipodi-0.dtd" xmlns:inkscape="http://www.inkscape.org/namespaces/inkscape" width="166.94701" height="228.32387" id="svg4026" version="1.1" inkscape:version="0.48.1 " sodipodi:docname="New document 5">
  <defs id="defs4028">
    <filter color-interpolation-filters="sRGB" inkscape:collect="always" id="filter3952" x="-0.065089613" width="1.1301792" y="-0.36049631" height="1.7209926">
      <feGaussianBlur inkscape:collect="always" stdDeviation="19.648783" id="feGaussianBlur3954"/>
    </filter>
    <filter color-interpolation-filters="sRGB" inkscape:collect="always" id="filter3900" x="-0.033240348" width="1.0664808" y="-0.11603175" height="1.2320635">
      <feGaussianBlur inkscape:collect="always" stdDeviation="3.13384" id="feGaussianBlur3902"/>
    </filter>
    <filter color-interpolation-filters="sRGB" inkscape:collect="always" id="filter3812">
      <feGaussianBlur inkscape:collect="always" stdDeviation="3.0531517" id="feGaussianBlur3814"/>
    </filter>
    <linearGradient inkscape:collect="always" xlink:href="#linearGradient2999" id="linearGradient3828" gradientUnits="userSpaceOnUse" gradientTransform="matrix(0.793697, 0, 0, 2.31996, 873.367, -678.079)" x1="391.7291" y1="576.58545" x2="385.74753" y2="385.29355"/>
    <linearGradient inkscape:collect="always" id="linearGradient2999">
      <stop style="stop-color:#d40000;stop-opacity:1;" offset="0" id="stop3001"/>
      <stop style="stop-color:#ff0000;stop-opacity:1" offset="1" id="stop3003"/>
    </linearGradient>
    <linearGradient inkscape:collect="always" xlink:href="#linearGradient2999" id="linearGradient3834" gradientUnits="userSpaceOnUse" gradientTransform="matrix(0.661423, 0, 0, 1.93332, 927.214, -493.506)" x1="391.7291" y1="576.58545" x2="385.74753" y2="385.29355"/>
    <filter color-interpolation-filters="sRGB" inkscape:collect="always" id="filter3894">
      <feGaussianBlur inkscape:collect="always" stdDeviation="1.4144678" id="feGaussianBlur3896"/>
    </filter>
  </defs>
  <sodipodi:namedview id="base" pagecolor="#ffffff" bordercolor="#666666" borderopacity="1.0" inkscape:pageopacity="0.0" inkscape:pageshadow="2" inkscape:zoom="0.35" inkscape:cx="373.52449" inkscape:cy="-305.07462" inkscape:document-units="px" inkscape:current-layer="layer1" showgrid="false" fit-margin-top="0" fit-margin-left="0" fit-margin-right="0" fit-margin-bottom="0" inkscape:window-width="1280" inkscape:window-height="751" inkscape:window-x="-4" inkscape:window-y="-4" inkscape:window-maximized="1"/>
  <metadata id="metadata4031">
    <rdf:RDF>
      <cc:Work rdf:about="">
        <dc:format>image/svg+xml</dc:format>
        <dc:type rdf:resource="http://purl.org/dc/dcmitype/StillImage"/>
        <dc:title/>
      </cc:Work>
    </rdf:RDF>
  </metadata>
  <g inkscape:label="Layer 1" inkscape:groupmode="layer" id="layer1" transform="translate(-1.47551, 1.0363)">
    <g transform="matrix(0.263278, 0, 0, 0.294268, -226.291, -0.654376)" id="g3956">
      <path transform="matrix(0.773597, 0, 0, 1, 237.682, -46.958)" d="m 1583.1551,708.56262 c 0,36.12261 -162.1837,65.40577 -362.2474,65.40577 -200.0637,0 -362.24733,-29.28316 -362.24733,-65.40577 0,-36.12261 162.18363,-65.40577 362.24733,-65.40577 200.0637,0 362.2474,29.28316 362.2474,65.40577 z" sodipodi:ry="65.405769" sodipodi:rx="362.24734" sodipodi:cy="708.56262" sodipodi:cx="1220.9077" id="path3942" style="opacity:0.4;fill:#1a1a1a;stroke:#ff8080;stroke-width:0.85757709;stroke-linecap:square;stroke-linejoin:round;stroke-miterlimit:4;stroke-opacity:1;stroke-dasharray:1.71515417, 1.71515417;stroke-dashoffset:0;filter:url(#filter3952)" sodipodi:type="arc"/>
      <g id="g3923">
        <path transform="matrix(-1, 0, 0, -2.05845, 2368.93, 261.393)" style="fill:none;stroke:#ff0000;stroke-width:10.45493507;stroke-linecap:square;stroke-linejoin:round;stroke-miterlimit:4;stroke-opacity:1;stroke-dasharray:none;stroke-dashoffset:0" d="m 1292.1428,53.522896 c 0,61.688234 -144.7044,64.640424 -204.1726,64.819384 -42.0268,0.12647 -11.1845,-12.48682 -11.1845,-64.819384 l 0,-5e-6" id="path3816" inkscape:connector-curvature="0" sodipodi:nodetypes="cssc"/>
        <path sodipodi:nodetypes="cssc" inkscape:connector-curvature="0" id="path3898" d="m 1292.1428,53.522896 c 0,61.688234 -144.7044,64.640424 -204.1726,64.819384 -42.0268,0.12647 -11.1845,-12.48682 -11.1845,-64.819384 l 0,-5e-6" style="fill:none;stroke:#d40000;stroke-width:3.48497844;stroke-linecap:square;stroke-linejoin:round;stroke-miterlimit:4;stroke-opacity:1;stroke-dasharray:none;stroke-dashoffset:0;filter:url(#filter3900)" transform="matrix(-1, 0, 0, -2.05845, 2368.93, 261.393)"/>
        <path sodipodi:nodetypes="ccccc" inkscape:connector-curvature="0" id="path3018" d="m 995.86794,158.63594 396.86976,0 48.2053,512.99782 -495.81772,0 z" style="fill:#d40000;fill-opacity:1;stroke:#d40000;stroke-width:6.73533249;stroke-linecap:round;stroke-linejoin:round;stroke-miterlimit:4;stroke-opacity:1;stroke-dashoffset:0"/>
        <path style="fill:none;stroke:#ff8080;stroke-width:3;stroke-linecap:round;stroke-linejoin:round;stroke-miterlimit:4;stroke-opacity:1;stroke-dashoffset:0;filter:url(#filter3812)" d="m 953.27438,177.23927 448.80162,0 54.5133,660.5632 -560.69747,0 z" id="path3034" inkscape:connector-curvature="0" sodipodi:nodetypes="ccccc" transform="matrix(0.861281, 0, 0, 0.748334, 178.17, 32.7072)"/>
        <path style="fill:url(#linearGradient3828);fill-opacity:1;stroke:#d40000;stroke-width:6.53270054;stroke-linecap:round;stroke-linejoin:round;stroke-miterlimit:4;stroke-opacity:1;stroke-dashoffset:0" d="m 995.07626,172.31266 384.92974,0 46.7553,497.56428 -480.90111,0 z" id="rect3013" inkscape:connector-curvature="0" sodipodi:nodetypes="ccccc"/>
        <path transform="matrix(-1, 0, 0, -2.20721, 2376.96, 307.463)" style="fill:none;stroke:#d40000;stroke-width:10.09646416;stroke-linecap:square;stroke-linejoin:round;stroke-miterlimit:4;stroke-opacity:1;stroke-dasharray:none;stroke-dashoffset:0" d="m 1292.1428,53.522896 c 0,61.688234 105.4663,63.769004 45.997,63.769004 -59.4692,0 -261.3541,-2.08077 -261.3541,-63.769004 l 0,-5e-6" id="path3818" inkscape:connector-curvature="0" sodipodi:nodetypes="cssc"/>
        <path sodipodi:nodetypes="ccccc" inkscape:connector-curvature="0" id="path3832" d="m 1028.639,215.16221 320.7789,0 38.9633,414.64221 -400.75611,0 z" style="fill:url(#linearGradient3834);fill-opacity:1;stroke:#d40000;stroke-width:5.44398689;stroke-linecap:round;stroke-linejoin:round;stroke-miterlimit:4;stroke-opacity:1;stroke-dashoffset:0"/>
        <path style="fill:none;stroke:#d40000;stroke-width:1.98986018;stroke-linecap:round;stroke-linejoin:round;stroke-miterlimit:4;stroke-opacity:1;stroke-dasharray:15.91888129, 7.95944064;stroke-dashoffset:0" d="m 1002.5964,184.82521 369.6191,0 44.8958,475.74376 -461.77351,0 z" id="path3842-6" inkscape:connector-curvature="0" sodipodi:nodetypes="ccccc"/>
        <path sodipodi:nodetypes="cssc" inkscape:connector-curvature="0" id="path3884" d="m 1292.1428,53.522896 c 0,61.688234 105.4663,63.769004 45.997,63.769004 -59.4692,0 -261.3541,-2.08077 -261.3541,-63.769004 l 0,-5e-6" style="opacity:0.1744681;fill:none;stroke:#2b0000;stroke-width:3.36548805;stroke-linecap:square;stroke-linejoin:round;stroke-miterlimit:4;stroke-opacity:1;stroke-dasharray:none;stroke-dashoffset:0;filter:url(#filter3894)" transform="matrix(-1, 0, 0, -2.10988, 2376.96, 296.047)"/>
        <g id="g3910">
          <path inkscape:connector-curvature="0" id="path3904" d="m 1074.4896,179.56308 c 17.8788,0 18.7509,0 18.7509,0 l 0,1.18587" style="fill:none;stroke:#aa0000;stroke-width:0.85757709;stroke-linecap:butt;stroke-linejoin:miter;stroke-miterlimit:4;stroke-opacity:1;stroke-dasharray:1.71515417, 1.71515417;stroke-dashoffset:0"/>
          <path style="fill:none;stroke:#aa0000;stroke-width:0.85757709;stroke-linecap:butt;stroke-linejoin:miter;stroke-miterlimit:4;stroke-opacity:1;stroke-dasharray:1.71515417, 1.71515417;stroke-dashoffset:0" d="m 1074.4896,187.86416 c 17.8788,0 18.7509,0 18.7509,0 l 0,1.18587" id="path3906" inkscape:connector-curvature="0"/>
          <path inkscape:connector-curvature="0" id="path3908" d="m 1074.4896,191.86416 c 17.8788,0 18.7509,0 18.7509,0 l 0,1.18587" style="fill:none;stroke:#aa0000;stroke-width:0.85757709;stroke-linecap:butt;stroke-linejoin:miter;stroke-miterlimit:4;stroke-opacity:1;stroke-dasharray:1.71515417, 1.71515417;stroke-dashoffset:0"/>
        </g>
        <g id="g3915" transform="translate(215.828, 0.592934)">
          <path style="fill:none;stroke:#aa0000;stroke-width:0.85757709;stroke-linecap:butt;stroke-linejoin:miter;stroke-miterlimit:4;stroke-opacity:1;stroke-dasharray:1.71515417, 1.71515417;stroke-dashoffset:0" d="m 1074.4896,179.56308 c 17.8788,0 18.7509,0 18.7509,0 l 0,1.18587" id="path3917" inkscape:connector-curvature="0"/>
          <path inkscape:connector-curvature="0" id="path3919" d="m 1074.4896,187.86416 c 17.8788,0 18.7509,0 18.7509,0 l 0,1.18587" style="fill:none;stroke:#aa0000;stroke-width:0.85757709;stroke-linecap:butt;stroke-linejoin:miter;stroke-miterlimit:4;stroke-opacity:1;stroke-dasharray:1.71515417, 1.71515417;stroke-dashoffset:0"/>
          <path style="fill:none;stroke:#aa0000;stroke-width:0.85757709;stroke-linecap:butt;stroke-linejoin:miter;stroke-miterlimit:4;stroke-opacity:1;stroke-dasharray:1.71515417, 1.71515417;stroke-dashoffset:0" d="m 1074.4896,191.86416 c 17.8788,0 18.7509,0 18.7509,0 l 0,1.18587" id="path3921" inkscape:connector-curvature="0"/>
        </g>
      </g>
    </g>
  </g>
</svg>